# xmcd
#
# Track frame offsets: 
#        150
#        60660
#        94245
#        144707
#
# Disc length: 2272 seconds
#
# Revision: 2
# Processed by: cddbd v1.5.2PL0 Copyright (c) Steve Scherf et al.
# Submitted via: ExactAudioCopy v0.99pb5
#
DISCID=3508de04
DTITLE=Dorgon and William Parker - 9
DYEAR=1996
DGENRE=Jazz
TTITLE0=POG
TTITLE1=BTBB
TTITLE2=Hardcore
TTITLE3=In Bloom
EXTD=
EXTT0=
EXTT1=
EXTT2=
EXTT3=
PLAYORDER=
